<?xml version="1.0" encoding="iso-8859-1"?>
<!-- Modified Power ON Version -->
<svg height="800px" width="800px" version="1.1" id="Layer_1"
  xmlns="http://www.w3.org/2000/svg" xmlns:xlink="http://www.w3.org/1999/xlink"
  viewBox="0 0 511.999 511.999" xml:space="preserve">
  <!-- Outer ring & accents - switched to vibrant green -->
  <path style="fill:#4CAF50;" d="M432.431,178.615c-23.648-34.6-56.48-61.301-94.944-77.217
    c-5.648-2.337-12.109-1.7-17.192,1.696c-5.082,3.398-8.152,9.107-8.152,15.22v38.408c0,6.794,3.782,13.03,9.794,16.196
    c47.037,24.776,76.268,72.981,76.268,125.805c0,78.203-63.694,141.826-141.99,141.826c-78.44,0-142.254-63.623-142.254-141.826
    c0-51.792,28.339-99.546,73.988-124.627c5.854-3.216,9.474-9.366,9.474-16.044v-38.709c0-6.157-3.077-11.902-8.218-15.288
    c-5.142-3.387-11.634-3.963-17.29-1.529C93.249,136.344,42.423,213.357,42.423,298.721c0,117.601,95.756,213.277,213.452,213.277
    c117.834,0,213.701-95.676,213.701-213.277C469.576,255.702,456.732,214.169,432.431,178.615z"/>
  <!-- Background fill accent - softer green -->
  <path style="fill:#81C784;" d="M256.213,440.549c-78.44,0-142.254-63.488-142.254-141.691
    c0-51.792,28.339-99.615,73.988-124.694c5.854-3.216,9.474-9.434,9.474-16.112v-38.709c0-6.157-3.077-11.902-8.218-15.288
    s-11.634-3.963-17.29-1.529c-78.665,33.819-129.49,110.831-129.49,196.196c0,117.601,95.756,213.277,213.452,213.277
    L256.213,440.549z"/>
  <!-- Power line stem - dark green -->
  <path style="fill:#2E7D32;" d="M256.003,254.374c19.003,0,34.172-15.407,34.172-34.41V34.41
    c0-19.003-15.169-34.41-34.172-34.41s-34.172,15.405-34.172,34.41v185.554C221.831,238.968,236.999,254.374,256.003,254.374z"/>
  <!-- Inner accent fallback -->
  <path style="fill:#388E3C;" d="M256.003,254.374V0C237,0,221.831,15.405,221.831,34.41v185.554
    C221.831,238.968,236.999,254.374,256.003,254.374z"/>
</svg>
